Coordinates
datacolumns 6
datarows 141
range 0 1.4
inDegrees=yes
Units are S.I. units (second, meters, Newtons, ...)
If the header above contains a line with 'inDegrees', this indicates whether rotational values are in degrees (yes) or radians (no).
endheader
time	foot_tx	hip_flexion_r	knee_angle_r	ankle_angle_r	lumbar
0	0.28963076	63.16869139	-60.42793475	-3.55797968	-11.5760959
0.01	0.28961941	63.29224301	-60.42369091	-3.55593763	-11.68136944
0.02	0.28964094	63.41850991	-60.40742109	-3.56313214	-11.79951057
0.03	0.28962065	63.55764103	-60.40249386	-3.56150302	-11.92042892
0.04	0.28963989	63.6389105	-60.38093302	-3.56820863	-12.12855913
0.05	0.28964341	63.78976759	-60.36296073	-3.5758069	-12.27427703
0.06	0.28963524	63.88768115	-60.34669286	-3.57788031	-12.50316314
0.07	0.28962845	64.01413027	-60.3268545	-3.58334956	-12.72029956
0.08	0.28961805	64.14143546	-60.30470459	-3.58926339	-12.95940464
0.09	0.28960562	64.27336197	-60.28149394	-3.59518599	-13.21634431
0.1	0.28958807	64.41026892	-60.25688772	-3.60086698	-13.49203351
0.11	0.28956657	64.55686053	-60.23164556	-3.60607364	-13.78138817
0.12	0.28953809	64.7169392	-60.20730887	-3.6097041	-14.08062189
0.13	0.28950492	64.89542163	-60.18373828	-3.61200815	-14.38451615
0.14	0.2894646	65.09740639	-60.16261693	-3.6118353	-14.68761651
0.15	0.28941842	65.32795518	-60.14356711	-3.60938832	-14.98486299
0.16	0.28937686	65.61506676	-60.12687878	-3.60677155	-15.24249031
0.17	0.28930856	65.92289527	-60.11985853	-3.59456137	-15.5052839
0.18	0.28925197	66.24621141	-60.11221215	-3.58064775	-15.77914352
0.19	0.28920031	66.58690999	-60.10547749	-3.56318132	-16.06345685
0.2	0.28913678	67.07243237	-60.1083909	-3.54388687	-16.20802533
0.21	0.28906433	67.56177081	-60.12003015	-3.51375157	-16.38039611
0.22	0.28900522	68.10289559	-60.13153332	-3.48203749	-16.52593581
0.23	0.28893812	68.69398908	-60.14931172	-3.44289635	-16.64865944
0.24	0.28888606	69.33624109	-60.16591378	-3.40192094	-16.74817117
0.25	0.2888269	70.0310109	-60.19014028	-3.35209693	-16.82367195
0.26	0.28876588	70.7785467	-60.21901569	-3.2950591	-16.87606501
0.27	0.2887039	71.57932539	-60.25166758	-3.2308956	-16.90527831
0.28	0.28864352	72.43352077	-60.28839642	-3.15908834	-16.91044008
0.29	0.2885781	73.34406294	-60.32928944	-3.07866747	-16.88773175
0.3	0.28851174	74.30914933	-60.37330605	-2.98971018	-16.837408
0.31	0.28844144	75.33070403	-60.42273232	-2.88997249	-16.7542229
0.32	0.28836911	76.4082029	-60.47592567	-2.77963346	-16.63558718
0.33	0.28829488	77.54491756	-60.53242772	-2.65804421	-16.47353829
0.34	0.28822219	78.72476419	-60.59625817	-2.52139276	-16.2812969
0.35	0.28815227	79.95648128	-60.66352549	-2.37117162	-16.04394847
0.36	0.28808858	81.23221093	-60.73545492	-2.20540884	-15.7646482
0.37	0.28803181	82.54400543	-60.81231558	-2.02247585	-15.44713453
0.38	0.28799107	83.88675314	-60.89448895	-1.8218852	-15.09019753
0.39	0.2879636	85.24572369	-60.98239889	-1.60153359	-14.70653944
0.4	0.28795669	86.61549578	-61.07548734	-1.36146744	-14.29630684
0.41	0.28797208	87.98730151	-61.17534909	-1.10060478	-13.8639826
0.42	0.2880112	89.34881243	-61.28321678	-0.81790911	-13.41916638
0.43	0.28807673	90.69276403	-61.39976853	-0.51355965	-12.96544713
0.44	0.28816864	92.00464584	-61.52893818	-0.18573381	-12.51580119
0.45	0.28828683	93.28191263	-61.67165257	0.16463826	-12.0685275
0.46	0.28843191	94.51451346	-61.83147264	0.53803456	-11.63160091
0.47	0.28860047	95.69266949	-62.01232627	0.9351652	-11.21325878
0.48	0.28879155	96.8124718	-62.21657412	1.35518476	-10.81401186
0.49	0.28900397	97.87014779	-62.44695276	1.7975575	-10.43434529
0.5	0.28923398	98.8572794	-62.70548471	2.26166069	-10.08063494
0.51	0.28947964	99.76906688	-62.99313294	2.7462023	-9.75444494
0.52	0.28973884	100.6008499	-63.3091657	3.24928575	-9.45689594
0.53	0.29000908	101.3455139	-63.65177101	3.76896482	-9.19195504
0.54	0.29028958	102.0021101	-64.01593135	4.30155203	-8.95542253
0.55	0.29057901	102.562437	-64.39661692	4.84438182	-8.75205121
0.56	0.29087157	103.0179579	-64.78896822	5.39498894	-8.58863625
0.57	0.29117468	103.3706379	-65.17984352	5.94639827	-8.45507641
0.58	0.29147505	103.6190129	-65.56295551	6.49687009	-8.3504197
0.59	0.29178165	103.7550598	-65.9267809	7.04081565	-8.27841351
0.6	0.29209239	103.7888724	-66.25880923	7.57230381	-8.22271732
0.61	0.29239902	103.6950901	-66.55347101	8.09114336	-8.21265817
0.62	0.2927052	103.5012527	-66.79714093	8.58971612	-8.21065256
0.63	0.29300685	103.201681	-66.981898	9.065316	-8.2223984
0.64	0.2933048	102.8000046	-67.10066543	9.51465547	-8.24304734
0.65	0.29359734	102.2967804	-67.14704572	9.93506572	-8.27278967
0.66	0.2938836	101.6977888	-67.11638691	10.32415663	-8.30533579
0.67	0.29416319	101.0070506	-67.00541469	10.68009972	-8.3375386
0.68	0.29443667	100.2298944	-66.81221695	11.00143593	-8.36503888
0.69	0.29470616	99.3665403	-66.53530098	11.28677733	-8.3909717
0.7	0.29496388	98.4213824	-66.1803347	11.53943565	-8.41042833
0.71	0.2952222	97.39516684	-65.74336403	11.75545743	-8.42750504
0.72	0.29547564	96.29345198	-65.22792658	11.9363687	-8.43739019
0.73	0.29572748	95.11158388	-64.6378731	12.08373631	-8.44824009
0.74	0.29597753	93.84941057	-63.97627673	12.19869359	-8.46269174
0.75	0.2962272	92.51113291	-63.24532372	12.28163193	-8.47782786
0.76	0.29647668	91.09086907	-62.44910703	12.3346161	-8.50295118
0.77	0.29672418	89.58968533	-61.59082572	12.35925464	-8.53935565
0.78	0.29697272	88.01148599	-60.67237047	12.35574282	-8.58396054
0.79	0.29721858	86.34687886	-59.69819115	12.3271539	-8.65106513
0.8	0.29746229	84.60796512	-58.6682052	12.27253438	-8.72836333
0.81	0.29770454	82.7932626	-57.58681297	12.19420728	-8.82035548
0.82	0.29794306	80.90695883	-56.45509753	12.09263256	-8.92527542
0.83	0.29817748	78.94817684	-55.27594951	11.96937968	-9.04756408
0.84	0.29840805	76.93350203	-54.04855914	11.82293601	-9.16993909
0.85	0.29863546	74.86359911	-52.77619719	11.65501304	-9.2956068
0.86	0.29885944	72.74371678	-51.45985606	11.46582557	-9.4215633
0.87	0.29908122	70.58261682	-50.10041424	11.25523774	-9.54044218
0.88	0.29930185	68.38730398	-48.69900437	11.02339723	-9.64717622
0.89	0.29952165	66.15838229	-47.2571384	10.77110825	-9.74415784
0.9	0.29974202	63.90549135	-45.77541	10.49804197	-9.82275324
0.91	0.29996311	61.62843706	-44.25583134	10.20538034	-9.88628869
0.92	0.30018297	59.3279434	-42.69979309	9.89400691	-9.93659987
0.93	0.30040999	57.01665768	-41.10819752	9.5628807	-9.96171862
0.94	0.30063276	54.68436994	-39.48504632	9.21583106	-9.97655357
0.95	0.30085609	52.34289047	-37.83263256	8.85282795	-9.97120708
0.96	0.30107576	49.98861296	-36.15534917	8.47668423	-9.95353387
0.97	0.30129212	47.63809621	-34.45779859	8.08857074	-9.90910633
0.98	0.30150096	45.29308182	-32.74636875	7.69193361	-9.84075336
0.99	0.30170097	42.96866548	-31.02804169	7.28919313	-9.73804674
1	0.30188816	40.67568034	-29.31170234	6.8842959	-9.59611217
1.01	0.30205884	38.42859827	-27.60733236	6.48135136	-9.40751997
1.02	0.30220929	36.24458539	-25.92600467	6.08473662	-9.16332851
1.03	0.30234075	34.14693352	-24.27697138	5.69681367	-8.84843361
1.04	0.30245053	32.15145416	-22.67141875	5.32168786	-8.45782686
1.05	0.30253123	30.25910131	-21.12207438	4.96555986	-8.00468225
1.06	0.30258061	28.48047536	-19.63886647	4.63194749	-7.49060239
1.07	0.30260467	26.83024378	-18.22766599	4.32090754	-6.91276949
1.08	0.30260029	25.30502529	-16.89345375	4.03423582	-6.28591434
1.09	0.30256905	23.90648955	-15.64192953	3.77333593	-5.62023235
1.1	0.30250934	22.62524028	-14.47537689	3.5388556	-4.93488922
1.11	0.30242547	21.46055553	-13.39272325	3.32888976	-4.23678241
1.12	0.30231808	20.40058053	-12.39295738	3.14283412	-3.54320322
1.13	0.30218991	19.43852511	-11.47263363	2.97867499	-2.86260427
1.14	0.3020418	18.56696542	-10.62758832	2.83441093	-2.20272804
1.15	0.30187699	17.77546836	-9.85298755	2.70845782	-1.57058576
1.16	0.30169883	17.0559838	-9.14327467	2.59879317	-0.96953515
1.17	0.30150825	16.40198432	-8.49356621	2.50447322	-0.39983578
1.18	0.30130981	15.83915248	-7.90105122	2.42331293	0.17585792
1.19	0.30111109	15.25807419	-7.34743633	2.35324706	0.6482708
1.2	0.30090808	14.772678	-6.84350914	2.29524136	1.14944871
1.21	0.30070835	14.31230376	-6.37579696	2.24722291	1.61255233
1.22	0.30051584	13.88074955	-5.93999337	2.20779359	2.050186
1.23	0.30033035	13.47299642	-5.53418658	2.17739733	2.46376123
1.24	0.30015527	13.08812465	-5.15426279	2.15454004	2.85899738
1.25	0.29999264	12.72471737	-4.79665884	2.13789073	3.24015292
1.26	0.2998418	12.38056538	-4.45924919	2.12691649	3.60930597
1.27	0.29970059	12.05398617	-4.1396855	2.12078839	3.96811656
1.28	0.29956509	11.74289661	-3.83628699	2.1190123	4.31730169
1.29	0.29943784	11.48480543	-3.55139285	2.12063537	4.70110539
1.3	0.29931627	11.1879046	-3.26945505	2.12272835	5.02268108
1.31	0.29919364	10.94028259	-3.003349	2.12773085	5.37946795
1.32	0.29907274	10.66010044	-2.73801428	2.13199415	5.68553662
1.33	0.29894688	10.43262906	-2.48557739	2.13798263	6.03554631
1.34	0.2988193	10.16451159	-2.23116518	2.14278599	6.3299044
1.35	0.29868495	9.94805088	-1.98785338	2.14917167	6.67146867
1.36	0.29854937	9.68797635	-1.74090453	2.15474662	6.95893744
1.37	0.29840867	9.47929517	-1.50539589	2.16293581	7.29669601
1.38	0.2982709	9.22337426	-1.26589712	2.17123092	7.57991955
1.39	0.29813388	9.01855052	-1.038694	2.18354975	7.91639919
1.4	0.29800604	8.76325218	-0.80874862	2.19764244	8.19695944
